<?xml version="1.0" encoding="UTF-8"?>
<svg width="530px" height="530px" viewBox="0 0 530 530" version="1.1" xmlns="http://www.w3.org/2000/svg" xmlns:xlink="http://www.w3.org/1999/xlink">
    <!-- Generator: Sketch 51.1 (57501) - http://www.bohemiancoding.com/sketch -->
    <title>facebook-logo</title>
    <desc>Created with Sketch.</desc>
    <defs></defs>
    <g id="Page-1" stroke="none" stroke-width="1" fill="none" fill-rule="evenodd">
        <g id="facebook-logo" transform="translate(10.000000, 10.000000)" fill-rule="nonzero" stroke="#000000" stroke-width="20">
            <path d="M459,0 L51,0 C22.95,0 0,22.95 0,51 L0,459 C0,487.05 22.95,510 51,510 L459,510 C487.05,510 510,487.05 510,459 L510,51 C510,22.95 487.05,0 459,0 Z M433.5,51 L433.5,127.5 L382.5,127.5 C367.2,127.5 357,137.7 357,153 L357,204 L433.5,204 L433.5,280.5 L357,280.5 L357,459 L280.5,459 L280.5,280.5 L229.5,280.5 L229.5,204 L280.5,204 L280.5,140.25 C280.5,91.8 321.3,51 369.75,51 L433.5,51 Z" id="Shape"></path>
        </g>
    </g>
</svg>